STARTFONT 2.1
FONT -Adobe-Courier-Bold-O-Normal--12-120-75-75-M-70-ISO8859-2
SIZE 12 75 75
FONTBOUNDINGBOX 11 14 -2 -3
COMMENT $XConsortium: courBO12.bdf,v 1.11 95/01/26 18:00:18 gildea Exp $
COMMENT 
COMMENT +
COMMENT  Copyright 1984-1989, 1994 Adobe Systems Incorporated.
COMMENT  Copyright 1988, 1994 Digital Equipment Corporation.
COMMENT
COMMENT  Adobe is a trademark of Adobe Systems Incorporated which may be
COMMENT  registered in certain jurisdictions.
COMMENT  Permission to use these trademarks is hereby granted only in
COMMENT  association with the images described in this file.
COMMENT
COMMENT  Permission to use, copy, modify, distribute and sell this software
COMMENT  and its documentation for any purpose and without fee is hereby
COMMENT  granted, provided that the above copyright notices appear in all
COMMENT  copies and that both those copyright notices and this permission
COMMENT  notice appear in supporting documentation, and that the names of
COMMENT  Adobe Systems and Digital Equipment Corporation not be used in
COMMENT  advertising or publicity pertaining to distribution of the software
COMMENT  without specific, written prior permission.  Adobe Systems and
COMMENT  Digital Equipment Corporation make no representations about the
COMMENT  suitability of this software for any purpose.  It is provided "as
COMMENT  is" without express or implied warranty.
COMMENT -
COMMENT  
COMMENT  Translation to ISO8859-2 by Cub Soft;  Petr.Kolar@vslib.cz
COMMENT  
STARTPROPERTIES 28
FOUNDRY "Adobe"
FAMILY_NAME "Courier"
WEIGHT_NAME "Bold"
SLANT "O"
SETWIDTH_NAME "Normal"
ADD_STYLE_NAME ""
PIXEL_SIZE 12
POINT_SIZE 120
RESOLUTION_X 75
RESOLUTION_Y 75
SPACING "M"
AVERAGE_WIDTH 70
CHARSET_REGISTRY "ISO8859"
CHARSET_ENCODING "2"
CAP_HEIGHT 8
X_HEIGHT 6
FONT_ASCENT 10
FONT_DESCENT 3
FACE_NAME "Courier Bold Oblique"

STARTCHAR space
ENCODING 32
SWIDTH 600 0
DWIDTH 7 0
BBX 1 1 0 0
BITMAP
00
ENDCHAR
STARTCHAR exclam
ENCODING 33
SWIDTH 600 0
DWIDTH 7 0
BBX 4 9 2 0
BITMAP
30
30
20
20
60
40
00
c0
c0
ENDCHAR
STARTCHAR quotedbl
ENCODING 34
SWIDTH 600 0
DWIDTH 7 0
BBX 5 3 2 5
BITMAP
d8
d8
90
ENDCHAR
STARTCHAR numbersign
ENCODING 35
SWIDTH 600 0
DWIDTH 7 0
BBX 7 9 1 0
BITMAP
14
14
7e
28
28
fc
50
50
50
ENDCHAR
STARTCHAR dollar
ENCODING 36
SWIDTH 600 0
DWIDTH 7 0
BBX 7 12 0 -2
BITMAP
04
04
1e
32
30
18
0c
0c
cc
f8
20
20
ENDCHAR
STARTCHAR percent
ENCODING 37
SWIDTH 600 0
DWIDTH 7 0
BBX 6 8 1 0
BITMAP
60
a0
cc
10
60
8c
14
18
ENDCHAR
STARTCHAR ampersand
ENCODING 38
SWIDTH 600 0
DWIDTH 7 0
BBX 7 8 0 0
BITMAP
18
3c
20
30
7a
dc
cc
76
ENDCHAR
STARTCHAR apostrophe
ENCODING 39
SWIDTH 600 0
DWIDTH 7 0
BBX 3 3 3 5
BITMAP
60
c0
80
ENDCHAR
STARTCHAR parenleft
ENCODING 40
SWIDTH 600 0
DWIDTH 7 0
BBX 6 11 1 -2
BITMAP
04
18
30
30
60
60
c0
c0
c0
40
20
ENDCHAR
STARTCHAR parenright
ENCODING 41
SWIDTH 600 0
DWIDTH 7 0
BBX 6 11 0 -2
BITMAP
10
08
0c
0c
0c
0c
18
18
30
60
80
ENDCHAR
STARTCHAR asterisk
ENCODING 42
SWIDTH 600 0
DWIDTH 7 0
BBX 5 4 2 4
BITMAP
20
f8
60
d0
ENDCHAR
STARTCHAR plus
ENCODING 43
SWIDTH 600 0
DWIDTH 7 0
BBX 5 5 1 1
BITMAP
30
30
f8
60
60
ENDCHAR
STARTCHAR comma
ENCODING 44
SWIDTH 600 0
DWIDTH 7 0
BBX 3 3 1 -1
BITMAP
60
60
c0
ENDCHAR
STARTCHAR minus
ENCODING 45
SWIDTH 600 0
DWIDTH 7 0
BBX 5 1 1 3
BITMAP
f8
ENDCHAR
STARTCHAR period
ENCODING 46
SWIDTH 600 0
DWIDTH 7 0
BBX 2 2 1 0
BITMAP
c0
c0
ENDCHAR
STARTCHAR slash
ENCODING 47
SWIDTH 600 0
DWIDTH 7 0
BBX 5 10 1 -1
BITMAP
08
08
10
10
20
20
40
40
80
80
ENDCHAR
STARTCHAR zero
ENCODING 48
SWIDTH 600 0
DWIDTH 7 0
BBX 6 9 1 0
BITMAP
38
6c
44
c4
cc
8c
88
d8
70
ENDCHAR
STARTCHAR one
ENCODING 49
SWIDTH 600 0
DWIDTH 7 0
BBX 6 9 0 0
BITMAP
0c
3c
0c
18
18
18
30
30
fc
ENDCHAR
STARTCHAR two
ENCODING 50
SWIDTH 600 0
DWIDTH 7 0
BBX 7 9 0 0
BITMAP
1c
36
06
06
0c
18
20
7c
f8
ENDCHAR
STARTCHAR three
ENCODING 51
SWIDTH 600 0
DWIDTH 7 0
BBX 7 9 0 0
BITMAP
1c
36
06
06
18
0c
0c
cc
78
ENDCHAR
STARTCHAR four
ENCODING 52
SWIDTH 600 0
DWIDTH 7 0
BBX 7 9 0 0
BITMAP
06
0e
16
26
6c
cc
fe
18
3c
ENDCHAR
STARTCHAR five
ENCODING 53
SWIDTH 600 0
DWIDTH 7 0
BBX 7 9 1 0
BITMAP
3e
2c
60
60
78
0c
0c
d8
70
ENDCHAR
STARTCHAR six
ENCODING 54
SWIDTH 600 0
DWIDTH 7 0
BBX 7 9 1 0
BITMAP
0e
38
60
40
f8
cc
cc
cc
78
ENDCHAR
STARTCHAR seven
ENCODING 55
SWIDTH 600 0
DWIDTH 7 0
BBX 6 9 1 0
BITMAP
fc
cc
0c
18
30
30
60
c0
c0
ENDCHAR
STARTCHAR eight
ENCODING 56
SWIDTH 600 0
DWIDTH 7 0
BBX 6 9 1 0
BITMAP
38
6c
44
6c
78
d8
88
d8
70
ENDCHAR
STARTCHAR nine
ENCODING 57
SWIDTH 600 0
DWIDTH 7 0
BBX 6 9 1 0
BITMAP
38
6c
cc
cc
7c
0c
18
30
e0
ENDCHAR
STARTCHAR colon
ENCODING 58
SWIDTH 600 0
DWIDTH 7 0
BBX 3 6 2 0
BITMAP
60
60
00
00
c0
c0
ENDCHAR
STARTCHAR semicolon
ENCODING 59
SWIDTH 600 0
DWIDTH 7 0
BBX 4 7 1 -1
BITMAP
30
30
00
00
60
60
c0
ENDCHAR
STARTCHAR less
ENCODING 60
SWIDTH 600 0
DWIDTH 7 0
BBX 6 6 1 0
BITMAP
0c
38
e0
60
30
18
ENDCHAR
STARTCHAR equal
ENCODING 61
SWIDTH 600 0
DWIDTH 7 0
BBX 6 3 1 2
BITMAP
7c
00
f8
ENDCHAR
STARTCHAR greater
ENCODING 62
SWIDTH 600 0
DWIDTH 7 0
BBX 6 6 0 0
BITMAP
30
18
0c
18
70
c0
ENDCHAR
STARTCHAR question
ENCODING 63
SWIDTH 600 0
DWIDTH 7 0
BBX 5 8 2 0
BITMAP
70
d8
98
30
60
00
c0
c0
ENDCHAR
STARTCHAR at
ENCODING 64
SWIDTH 600 0
DWIDTH 7 0
BBX 6 9 1 -1
BITMAP
38
64
44
9c
a8
a8
9c
c0
78
ENDCHAR
STARTCHAR A
ENCODING 65
SWIDTH 600 0
DWIDTH 7 0
BBX 8 8 -1 0
BITMAP
0e
06
0a
1a
3e
32
66
e7
ENDCHAR
STARTCHAR B
ENCODING 66
SWIDTH 600 0
DWIDTH 7 0
BBX 8 8 -1 0
BITMAP
3e
1b
13
3e
32
62
66
fc
ENDCHAR
STARTCHAR C
ENCODING 67
SWIDTH 600 0
DWIDTH 7 0
BBX 8 8 0 0
BITMAP
1e
33
62
60
c0
cc
d8
70
ENDCHAR
STARTCHAR D
ENCODING 68
SWIDTH 600 0
DWIDTH 7 0
BBX 8 8 -1 0
BITMAP
3e
1b
33
33
23
66
6e
f8
ENDCHAR
STARTCHAR E
ENCODING 69
SWIDTH 600 0
DWIDTH 7 0
BBX 8 8 0 0
BITMAP
3f
19
30
3c
34
60
64
fc
ENDCHAR
STARTCHAR F
ENCODING 70
SWIDTH 600 0
DWIDTH 7 0
BBX 8 8 0 0
BITMAP
3f
19
30
3c
34
60
60
f0
ENDCHAR
STARTCHAR G
ENCODING 71
SWIDTH 600 0
DWIDTH 7 0
BBX 8 8 0 0
BITMAP
1e
33
62
60
ce
cc
cc
78
ENDCHAR
STARTCHAR H
ENCODING 72
SWIDTH 600 0
DWIDTH 7 0
BBX 9 8 -1 0
BITMAP
1d80
1980
1300
3f00
3200
6600
6400
ee00
ENDCHAR
STARTCHAR I
ENCODING 73
SWIDTH 600 0
DWIDTH 7 0
BBX 8 8 0 0
BITMAP
3f
0c
18
18
18
30
30
fc
ENDCHAR
STARTCHAR J
ENCODING 74
SWIDTH 600 0
DWIDTH 7 0
BBX 8 8 0 0
BITMAP
0f
06
04
0c
0c
d8
d8
70
ENDCHAR
STARTCHAR K
ENCODING 75
SWIDTH 600 0
DWIDTH 7 0
BBX 9 8 -1 0
BITMAP
3d80
1b00
1e00
3800
3c00
6400
6600
f700
ENDCHAR
STARTCHAR L
ENCODING 76
SWIDTH 600 0
DWIDTH 7 0
BBX 6 8 0 0
BITMAP
3c
18
30
30
30
60
64
fc
ENDCHAR
STARTCHAR M
ENCODING 77
SWIDTH 600 0
DWIDTH 7 0
BBX 9 8 -1 0
BITMAP
3980
1b80
1f00
3500
3300
6600
6600
ef00
ENDCHAR
STARTCHAR N
ENCODING 78
SWIDTH 600 0
DWIDTH 7 0
BBX 10 8 -1 0
BITMAP
39c0
1900
3b00
2a00
2e00
6c00
4c00
ec00
ENDCHAR
STARTCHAR O
ENCODING 79
SWIDTH 600 0
DWIDTH 7 0
BBX 7 8 0 0
BITMAP
1c
36
66
46
c4
cc
d8
70
ENDCHAR
STARTCHAR P
ENCODING 80
SWIDTH 600 0
DWIDTH 7 0
BBX 8 8 -1 0
BITMAP
3e
1b
33
33
3c
60
60
f0
ENDCHAR
STARTCHAR Q
ENCODING 81
SWIDTH 600 0
DWIDTH 7 0
BBX 7 10 0 -2
BITMAP
1c
76
66
c6
c6
cc
dc
70
f4
98
ENDCHAR
STARTCHAR R
ENCODING 82
SWIDTH 600 0
DWIDTH 7 0
BBX 8 8 -1 0
BITMAP
3e
1b
13
36
3c
64
66
f7
ENDCHAR
STARTCHAR S
ENCODING 83
SWIDTH 600 0
DWIDTH 7 0
BBX 8 8 0 0
BITMAP
1e
33
32
38
1c
cc
cc
78
ENDCHAR
STARTCHAR T
ENCODING 84
SWIDTH 600 0
DWIDTH 7 0
BBX 7 8 1 0
BITMAP
fe
9a
30
30
20
60
60
f0
ENDCHAR
STARTCHAR U
ENCODING 85
SWIDTH 600 0
DWIDTH 7 0
BBX 8 8 0 0
BITMAP
77
66
66
4c
cc
c8
d8
70
ENDCHAR
STARTCHAR V
ENCODING 86
SWIDTH 600 0
DWIDTH 7 0
BBX 7 8 1 0
BITMAP
f6
64
6c
68
70
60
60
40
ENDCHAR
STARTCHAR W
ENCODING 87
SWIDTH 600 0
DWIDTH 7 0
BBX 8 8 0 0
BITMAP
f7
62
66
54
54
f8
d0
90
ENDCHAR
STARTCHAR X
ENCODING 88
SWIDTH 600 0
DWIDTH 7 0
BBX 9 8 -1 0
BITMAP
3b80
1b00
0e00
0c00
1c00
3400
6600
ef00
ENDCHAR
STARTCHAR Y
ENCODING 89
SWIDTH 600 0
DWIDTH 7 0
BBX 8 8 1 0
BITMAP
f7
64
68
30
30
60
60
f0
ENDCHAR
STARTCHAR Z
ENCODING 90
SWIDTH 600 0
DWIDTH 7 0
BBX 7 8 0 0
BITMAP
3e
66
0c
18
30
64
cc
f8
ENDCHAR
STARTCHAR bracketleft
ENCODING 91
SWIDTH 600 0
DWIDTH 7 0
BBX 6 11 1 -2
BITMAP
1c
18
10
30
30
20
20
60
60
c0
e0
ENDCHAR
STARTCHAR backslash
ENCODING 92
SWIDTH 600 0
DWIDTH 7 0
BBX 5 10 1 -1
BITMAP
80
80
40
40
20
20
10
10
08
08
ENDCHAR
STARTCHAR bracketright
ENCODING 93
SWIDTH 600 0
DWIDTH 7 0
BBX 6 11 0 -2
BITMAP
1c
0c
08
18
18
10
30
30
20
60
e0
ENDCHAR
STARTCHAR asciicircum
ENCODING 94
SWIDTH 600 0
DWIDTH 7 0
BBX 5 3 2 5
BITMAP
30
58
88
ENDCHAR
STARTCHAR underscore
ENCODING 95
SWIDTH 600 0
DWIDTH 7 0
BBX 7 1 -1 -2
BITMAP
fe
ENDCHAR
STARTCHAR grave
ENCODING 96
SWIDTH 600 0
DWIDTH 7 0
BBX 3 2 4 7
BITMAP
c0
20
ENDCHAR
STARTCHAR a
ENCODING 97
SWIDTH 600 0
DWIDTH 7 0
BBX 7 6 0 0
BITMAP
3c
06
3e
cc
cc
7e
ENDCHAR
STARTCHAR b
ENCODING 98
SWIDTH 600 0
DWIDTH 7 0
BBX 8 9 -1 0
BITMAP
38
08
18
1e
33
33
63
66
fc
ENDCHAR
STARTCHAR c
ENCODING 99
SWIDTH 600 0
DWIDTH 7 0
BBX 7 6 0 0
BITMAP
3e
66
c0
c0
cc
78
ENDCHAR
STARTCHAR d
ENCODING 100
SWIDTH 600 0
DWIDTH 7 0
BBX 8 9 0 0
BITMAP
07
03
02
3e
66
c6
cc
cc
7e
ENDCHAR
STARTCHAR e
ENCODING 101
SWIDTH 600 0
DWIDTH 7 0
BBX 7 6 0 0
BITMAP
3c
66
fe
c0
cc
78
ENDCHAR
STARTCHAR f
ENCODING 102
SWIDTH 600 0
DWIDTH 7 0
BBX 9 9 0 0
BITMAP
0780
0c00
0c00
7e00
1800
1800
3000
3000
fc00
ENDCHAR
STARTCHAR g
ENCODING 103
SWIDTH 600 0
DWIDTH 7 0
BBX 9 9 -1 -3
BITMAP
1d80
3300
6300
6600
6600
3e00
0c00
1c00
f000
ENDCHAR
STARTCHAR h
ENCODING 104
SWIDTH 600 0
DWIDTH 7 0
BBX 8 9 -1 0
BITMAP
38
08
18
16
3b
33
66
66
ef
ENDCHAR
STARTCHAR i
ENCODING 105
SWIDTH 600 0
DWIDTH 7 0
BBX 6 9 0 0
BITMAP
0c
00
00
78
18
18
30
30
fc
ENDCHAR
STARTCHAR j
ENCODING 106
SWIDTH 600 0
DWIDTH 7 0
BBX 7 12 -1 -3
BITMAP
06
00
00
3e
0c
0c
1c
18
18
18
30
e0
ENDCHAR
STARTCHAR k
ENCODING 107
SWIDTH 600 0
DWIDTH 7 0
BBX 8 9 -1 0
BITMAP
38
18
10
33
36
3c
78
6c
e7
ENDCHAR
STARTCHAR l
ENCODING 108
SWIDTH 600 0
DWIDTH 7 0
BBX 6 9 0 0
BITMAP
3c
0c
08
18
18
18
30
30
fc
ENDCHAR
STARTCHAR m
ENCODING 109
SWIDTH 600 0
DWIDTH 7 0
BBX 7 6 0 0
BITMAP
d4
7e
6a
54
d4
d6
ENDCHAR
STARTCHAR n
ENCODING 110
SWIDTH 600 0
DWIDTH 7 0
BBX 8 6 -1 0
BITMAP
6e
3b
33
22
66
f7
ENDCHAR
STARTCHAR o
ENCODING 111
SWIDTH 600 0
DWIDTH 7 0
BBX 7 6 0 0
BITMAP
3c
66
c6
c4
cc
78
ENDCHAR
STARTCHAR p
ENCODING 112
SWIDTH 600 0
DWIDTH 7 0
BBX 9 9 -2 -3
BITMAP
3700
1980
1980
3180
3300
3e00
3000
6000
f000
ENDCHAR
STARTCHAR q
ENCODING 113
SWIDTH 600 0
DWIDTH 7 0
BBX 8 9 0 -3
BITMAP
3b
66
c6
cc
cc
7c
18
18
3c
ENDCHAR
STARTCHAR r
ENCODING 114
SWIDTH 600 0
DWIDTH 7 0
BBX 7 6 0 0
BITMAP
6e
3a
30
60
60
f8
ENDCHAR
STARTCHAR s
ENCODING 115
SWIDTH 600 0
DWIDTH 7 0
BBX 6 6 0 0
BITMAP
3c
64
78
1c
cc
78
ENDCHAR
STARTCHAR t
ENCODING 116
SWIDTH 600 0
DWIDTH 7 0
BBX 5 8 1 0
BITMAP
30
30
f8
60
60
c0
c8
70
ENDCHAR
STARTCHAR u
ENCODING 117
SWIDTH 600 0
DWIDTH 7 0
BBX 7 6 0 0
BITMAP
ee
66
66
cc
cc
76
ENDCHAR
STARTCHAR v
ENCODING 118
SWIDTH 600 0
DWIDTH 7 0
BBX 8 6 0 0
BITMAP
f7
66
64
78
30
30
ENDCHAR
STARTCHAR w
ENCODING 119
SWIDTH 600 0
DWIDTH 7 0
BBX 8 6 0 0
BITMAP
f7
62
6a
74
78
68
ENDCHAR
STARTCHAR x
ENCODING 120
SWIDTH 600 0
DWIDTH 7 0
BBX 7 6 0 0
BITMAP
76
3c
18
38
6c
cc
ENDCHAR
STARTCHAR y
ENCODING 121
SWIDTH 600 0
DWIDTH 7 0
BBX 9 9 -1 -3
BITMAP
7b80
3300
3200
1c00
1800
1800
3000
6000
e000
ENDCHAR
STARTCHAR z
ENCODING 122
SWIDTH 600 0
DWIDTH 7 0
BBX 7 6 0 0
BITMAP
7e
6c
18
60
ec
fc
ENDCHAR
STARTCHAR braceleft
ENCODING 123
SWIDTH 600 0
DWIDTH 7 0
BBX 6 11 2 -2
BITMAP
1c
30
30
30
20
c0
60
60
c0
c0
60
ENDCHAR
STARTCHAR bar
ENCODING 124
SWIDTH 600 0
DWIDTH 7 0
BBX 3 9 2 -1
BITMAP
20
20
20
40
40
40
80
80
80
ENDCHAR
STARTCHAR braceright
ENCODING 125
SWIDTH 600 0
DWIDTH 7 0
BBX 6 11 -1 -2
BITMAP
18
0c
0c
18
18
0c
10
30
30
30
c0
ENDCHAR
STARTCHAR asciitilde
ENCODING 126
SWIDTH 600 0
DWIDTH 7 0
BBX 7 3 0 2
BITMAP
32
7c
98
ENDCHAR
STARTCHAR nobreakspace
ENCODING 160
SWIDTH 600 0
DWIDTH 7 0
BBX 1 1 0 0
BITMAP
00
ENDCHAR
STARTCHAR Aogonek
ENCODING 161
SWIDTH 600 0
DWIDTH 7 0
BBX 8 11 -1 -3
BITMAP
0e
06
0a
1a
3e
32
66
e7
10
20
38
ENDCHAR
STARTCHAR breve
ENCODING 162
SWIDTH 600 0
DWIDTH 7 0
BBX 4 2 3 7
BITMAP
90
e0
ENDCHAR
STARTCHAR Lstroke
ENCODING 163
SWIDTH 600 0
DWIDTH 7 0
BBX 6 8 0 0
BITMAP
3c
18
30
3c
70
e0
64
fc
ENDCHAR
STARTCHAR currency
ENCODING 164
SWIDTH 600 0
DWIDTH 7 0
BBX 5 6 2 1
BITMAP
88
70
d0
d0
60
90
ENDCHAR
STARTCHAR Lcaron
ENCODING 165
SWIDTH 880 0
DWIDTH 11 0
BBX 10 9 0 0
BITMAP
00c0
3d80
1900
3000
3000
3000
6000
6400
fc00
ENDCHAR
STARTCHAR Sacute
ENCODING 166
SWIDTH 600 0
DWIDTH 7 0
BBX 8 11 0 0
BITMAP
06
08
00
1e
33
32
38
1c
cc
cc
78
ENDCHAR
STARTCHAR section
ENCODING 167
SWIDTH 600 0
DWIDTH 7 0
BBX 7 10 0 -1
BITMAP
1e
32
20
78
4c
64
3c
08
98
f0
ENDCHAR
STARTCHAR diaeresis
ENCODING 168
SWIDTH 600 0
DWIDTH 7 0
BBX 4 2 3 7
BITMAP
90
90
ENDCHAR
STARTCHAR Scaron
ENCODING 169
SWIDTH 600 0
DWIDTH 7 0
BBX 8 11 0 0
BITMAP
0a
0c
00
1e
33
32
38
1c
cc
cc
78
ENDCHAR
STARTCHAR Scedilla
ENCODING 170
SWIDTH 600 0
DWIDTH 7 0
BBX 8 11 0 -3
BITMAP
1e
33
32
38
1c
cc
cc
78
08
24
18
ENDCHAR
STARTCHAR Tcaron
ENCODING 171
SWIDTH 600 0
DWIDTH 7 0
BBX 7 11 1 0
BITMAP
14
18
00
fe
9a
30
30
20
60
60
f0
ENDCHAR
STARTCHAR Zacute
ENCODING 172
SWIDTH 600 0
DWIDTH 7 0
BBX 7 11 0 0
BITMAP
0c
10
00
3e
66
0c
18
30
64
cc
f8
ENDCHAR
STARTCHAR hyphen
ENCODING 173
SWIDTH 600 0
DWIDTH 7 0
BBX 5 1 1 3
BITMAP
f8
ENDCHAR
STARTCHAR Zcaron
ENCODING 174
SWIDTH 600 0
DWIDTH 7 0
BBX 7 11 0 0
BITMAP
14
18
00
3e
66
0c
18
30
64
cc
f8
ENDCHAR
STARTCHAR Zabovedot
ENCODING 175
SWIDTH 600 0
DWIDTH 7 0
BBX 7 11 0 0
BITMAP
10
10
00
3e
66
0c
18
30
64
cc
f8
ENDCHAR
STARTCHAR degree
ENCODING 176
SWIDTH 600 0
DWIDTH 7 0
BBX 4 4 1 4
BITMAP
70
90
90
e0
ENDCHAR
STARTCHAR aogonek
ENCODING 177
SWIDTH 600 0
DWIDTH 7 0
BBX 7 9 0 -3
BITMAP
3c
06
3e
cc
cc
7e
10
20
38
ENDCHAR
STARTCHAR ogonek
ENCODING 178
SWIDTH 600 0
DWIDTH 7 0
BBX 3 3 2 -3
BITMAP
40
80
e0
ENDCHAR
STARTCHAR lstroke
ENCODING 179
SWIDTH 600 0
DWIDTH 7 0
BBX 6 8 0 0
BITMAP
3c
0c
18
1c
38
70
30
fc
ENDCHAR
STARTCHAR acute
ENCODING 180
SWIDTH 600 0
DWIDTH 7 0
BBX 3 2 4 7
BITMAP
60
80
ENDCHAR
STARTCHAR lcaron
ENCODING 181
SWIDTH 880 0
DWIDTH 11 0
BBX 10 10 0 0
BITMAP
00c0
3d80
0d00
0800
1800
1800
1800
3000
3000
fc00
ENDCHAR
STARTCHAR sacute
ENCODING 182
SWIDTH 600 0
DWIDTH 7 0
BBX 6 9 0 0
BITMAP
0c
10
00
3c
64
78
1c
cc
78
ENDCHAR
STARTCHAR caron
ENCODING 183
SWIDTH 600 0
DWIDTH 7 0
BBX 3 2 4 7
BITMAP
a0
c0
ENDCHAR
STARTCHAR cedilla
ENCODING 184
SWIDTH 600 0
DWIDTH 7 0
BBX 4 3 1 -3
BITMAP
20
90
60
ENDCHAR
STARTCHAR scaron
ENCODING 185
SWIDTH 600 0
DWIDTH 7 0
BBX 6 9 0 0
BITMAP
14
18
00
3c
64
78
1c
cc
78
ENDCHAR
STARTCHAR scedilla
ENCODING 186
SWIDTH 600 0
DWIDTH 7 0
BBX 6 9 0 -3
BITMAP
3c
64
78
1c
cc
78
10
48
30
ENDCHAR
STARTCHAR tcaron
ENCODING 187
SWIDTH 800 0
DWIDTH 10 0
BBX 8 10 1 0
BITMAP
03
06
34
30
f8
60
60
c0
c8
70
ENDCHAR
STARTCHAR zacute
ENCODING 188
SWIDTH 600 0
DWIDTH 7 0
BBX 7 9 0 0
BITMAP
0c
10
00
7e
6c
18
60
ec
fc
ENDCHAR
STARTCHAR doubleacute
ENCODING 189
SWIDTH 600 0
DWIDTH 7 0
BBX 5 2 2 7
BITMAP
48
90
ENDCHAR
STARTCHAR zcaron
ENCODING 190
SWIDTH 600 0
DWIDTH 7 0
BBX 7 9 0 0
BITMAP
14
18
00
7e
6c
18
60
ec
fc
ENDCHAR
STARTCHAR zabovedot
ENCODING 191
SWIDTH 600 0
DWIDTH 7 0
BBX 7 9 0 0
BITMAP
10
10
00
7e
6c
18
60
ec
fc
ENDCHAR
STARTCHAR Racute
ENCODING 192
SWIDTH 600 0
DWIDTH 7 0
BBX 8 11 -1 0
BITMAP
06
08
00
3e
1b
13
36
3c
64
66
f7
ENDCHAR
STARTCHAR Aacute
ENCODING 193
SWIDTH 600 0
DWIDTH 7 0
BBX 8 11 -1 0
BITMAP
03
04
00
1e
06
0a
1a
3e
32
66
e7
ENDCHAR
STARTCHAR Acircumflex
ENCODING 194
SWIDTH 600 0
DWIDTH 7 0
BBX 8 11 -1 0
BITMAP
06
0a
00
1e
06
0a
1a
3e
32
66
e7
ENDCHAR
STARTCHAR Abreve
ENCODING 195
SWIDTH 600 0
DWIDTH 7 0
BBX 8 11 -1 0
BITMAP
09
0e
00
0e
06
0a
1a
3e
32
66
e7
ENDCHAR
STARTCHAR Adiaeresis
ENCODING 196
SWIDTH 600 0
DWIDTH 7 0
BBX 8 10 -1 0
BITMAP
1b
00
1e
06
0a
1a
3e
32
66
e7
ENDCHAR
STARTCHAR Lacute
ENCODING 197
SWIDTH 600 0
DWIDTH 7 0
BBX 6 11 0 0
BITMAP
0c
10
00
3c
18
30
30
30
60
64
fc
ENDCHAR
STARTCHAR Cacute
ENCODING 198
SWIDTH 600 0
DWIDTH 7 0
BBX 8 11 0 0
BITMAP
06
08
00
1e
33
62
60
c0
cc
d8
70
ENDCHAR
STARTCHAR Ccedilla
ENCODING 199
SWIDTH 600 0
DWIDTH 7 0
BBX 7 11 0 -3
BITMAP
1c
36
66
40
c0
cc
d8
70
20
90
60
ENDCHAR
STARTCHAR Ccaron
ENCODING 200
SWIDTH 600 0
DWIDTH 7 0
BBX 8 11 0 0
BITMAP
0a
0c
00
1e
33
62
60
c0
cc
d8
70
ENDCHAR
STARTCHAR Eacute
ENCODING 201
SWIDTH 600 0
DWIDTH 7 0
BBX 8 11 0 0
BITMAP
03
04
00
3f
19
30
3c
34
60
64
fc
ENDCHAR
STARTCHAR Eogonek
ENCODING 202
SWIDTH 600 0
DWIDTH 7 0
BBX 8 11 0 -3
BITMAP
3f
19
30
3c
34
60
64
fc
10
20
38
ENDCHAR
STARTCHAR Ediaeresis
ENCODING 203
SWIDTH 600 0
DWIDTH 7 0
BBX 8 10 0 0
BITMAP
1b
00
3f
19
30
3c
34
60
64
fc
ENDCHAR
STARTCHAR Ecaron
ENCODING 204
SWIDTH 600 0
DWIDTH 7 0
BBX 8 11 0 0
BITMAP
0a
0c
00
3f
19
30
3c
34
60
64
fc
ENDCHAR
STARTCHAR Iacute
ENCODING 205
SWIDTH 600 0
DWIDTH 7 0
BBX 8 11 0 0
BITMAP
06
08
00
3f
0c
18
18
18
30
30
fc
ENDCHAR
STARTCHAR Icircumflex
ENCODING 206
SWIDTH 600 0
DWIDTH 7 0
BBX 8 11 0 0
BITMAP
06
0a
00
3f
0c
18
18
18
30
30
fc
ENDCHAR
STARTCHAR Dcaron
ENCODING 207
SWIDTH 600 0
DWIDTH 7 0
BBX 8 11 -1 0
BITMAP
0a
0c
00
3e
1b
33
33
23
66
6e
f8
ENDCHAR
STARTCHAR Dstroke
ENCODING 208
SWIDTH 600 0
DWIDTH 7 0
BBX 8 8 -1 0
BITMAP
3e
1b
33
7b
23
66
6e
f8
ENDCHAR
STARTCHAR Nacute
ENCODING 209
SWIDTH 600 0
DWIDTH 7 0
BBX 10 11 -1 0
BITMAP
0300
0400
0000
39c0
1900
3b00
2a00
2e00
6c00
4c00
ec00
ENDCHAR
STARTCHAR Ncaron
ENCODING 210
SWIDTH 600 0
DWIDTH 7 0
BBX 10 11 -1 0
BITMAP
0500
0600
0000
39c0
1900
3b00
2a00
2e00
6c00
4c00
ec00
ENDCHAR
STARTCHAR Oacute
ENCODING 211
SWIDTH 600 0
DWIDTH 7 0
BBX 7 11 0 0
BITMAP
06
08
00
1c
36
66
46
c4
cc
d8
70
ENDCHAR
STARTCHAR Ocircumflex
ENCODING 212
SWIDTH 600 0
DWIDTH 7 0
BBX 7 11 0 0
BITMAP
06
0a
00
1c
36
66
46
c4
cc
d8
70
ENDCHAR
STARTCHAR Odoubleacute
ENCODING 213
SWIDTH 600 0
DWIDTH 7 0
BBX 8 11 0 0
BITMAP
09
12
00
1c
36
66
46
c4
cc
d8
70
ENDCHAR
STARTCHAR Odiaeresis
ENCODING 214
SWIDTH 600 0
DWIDTH 7 0
BBX 8 10 0 0
BITMAP
33
00
1c
36
66
46
c4
cc
d8
70
ENDCHAR
STARTCHAR multiply
ENCODING 215
SWIDTH 600 0
DWIDTH 7 0
BBX 7 5 0 1
BITMAP
66
3c
10
78
cc
ENDCHAR
STARTCHAR Rcaron
ENCODING 216
SWIDTH 600 0
DWIDTH 7 0
BBX 8 11 -1 0
BITMAP
0a
0c
00
3e
1b
13
36
3c
64
66
f7
ENDCHAR
STARTCHAR Uring
ENCODING 217
SWIDTH 600 0
DWIDTH 7 0
BBX 8 12 0 0
BITMAP
0c
12
0c
00
77
66
66
4c
cc
c8
d8
70
ENDCHAR
STARTCHAR Uacute
ENCODING 218
SWIDTH 600 0
DWIDTH 7 0
BBX 8 11 0 0
BITMAP
0c
10
00
77
66
64
4c
cc
c8
d8
70
ENDCHAR
STARTCHAR Udoubleacute
ENCODING 219
SWIDTH 600 0
DWIDTH 7 0
BBX 8 11 0 0
BITMAP
09
12
00
77
66
66
4c
cc
c8
d8
70
ENDCHAR
STARTCHAR Udiaeresis
ENCODING 220
SWIDTH 600 0
DWIDTH 7 0
BBX 8 10 0 0
BITMAP
66
00
77
66
64
4c
cc
c8
d8
70
ENDCHAR
STARTCHAR Yacute
ENCODING 221
SWIDTH 600 0
DWIDTH 7 0
BBX 8 11 1 0
BITMAP
0c
10
00
f7
64
68
68
30
60
60
f0
ENDCHAR
STARTCHAR Tcedilla
ENCODING 222
SWIDTH 600 0
DWIDTH 7 0
BBX 7 11 1 -3
BITMAP
fe
9a
30
30
20
60
60
f0
08
24
18
ENDCHAR
STARTCHAR ssharp
ENCODING 223
SWIDTH 600 0
DWIDTH 7 0
BBX 7 8 -1 0
BITMAP
0c
16
36
3c
26
66
76
dc
ENDCHAR
STARTCHAR racute
ENCODING 224
SWIDTH 600 0
DWIDTH 7 0
BBX 7 9 0 0
BITMAP
0c
10
00
6e
3a
30
60
60
f8
ENDCHAR
STARTCHAR aacute
ENCODING 225
SWIDTH 600 0
DWIDTH 7 0
BBX 7 9 0 0
BITMAP
06
08
00
3c
06
3e
cc
cc
7e
ENDCHAR
STARTCHAR acircumflex
ENCODING 226
SWIDTH 600 0
DWIDTH 7 0
BBX 7 9 0 0
BITMAP
0c
14
00
3c
06
3e
cc
cc
7e
ENDCHAR
STARTCHAR abreve
ENCODING 227
SWIDTH 600 0
DWIDTH 7 0
BBX 7 9 0 0
BITMAP
12
1c
00
3c
06
3e
cc
cc
7e
ENDCHAR
STARTCHAR adiaeresis
ENCODING 228
SWIDTH 600 0
DWIDTH 7 0
BBX 7 8 0 0
BITMAP
36
00
3c
06
3e
cc
cc
7e
ENDCHAR
STARTCHAR lacute
ENCODING 229
SWIDTH 600 0
DWIDTH 7 0
BBX 6 12 0 0
BITMAP
0c
10
00
3c
0c
08
18
18
18
30
30
fc
ENDCHAR
STARTCHAR cacute
ENCODING 230
SWIDTH 600 0
DWIDTH 7 0
BBX 7 9 0 0
BITMAP
0c
10
00
3e
66
c0
c0
cc
78
ENDCHAR
STARTCHAR ccedilla
ENCODING 231
SWIDTH 600 0
DWIDTH 7 0
BBX 7 9 0 -3
BITMAP
3e
66
c0
c0
cc
78
20
90
60
ENDCHAR
STARTCHAR ccaron
ENCODING 232
SWIDTH 600 0
DWIDTH 7 0
BBX 7 9 0 0
BITMAP
14
18
00
3e
66
c0
c0
cc
78
ENDCHAR
STARTCHAR eacute
ENCODING 233
SWIDTH 600 0
DWIDTH 7 0
BBX 7 9 0 0
BITMAP
06
08
00
3c
66
fe
c0
cc
78
ENDCHAR
STARTCHAR eogonek
ENCODING 234
SWIDTH 600 0
DWIDTH 7 0
BBX 7 9 0 -3
BITMAP
3c
66
fe
c0
cc
78
10
20
38
ENDCHAR
STARTCHAR ediaeresis
ENCODING 235
SWIDTH 600 0
DWIDTH 7 0
BBX 7 8 0 0
BITMAP
36
00
3c
66
fe
c0
cc
78
ENDCHAR
STARTCHAR ecaron
ENCODING 236
SWIDTH 600 0
DWIDTH 7 0
BBX 7 9 0 0
BITMAP
14
18
00
3c
66
fe
c0
cc
78
ENDCHAR
STARTCHAR iacute
ENCODING 237
SWIDTH 600 0
DWIDTH 7 0
BBX 7 9 0 0
BITMAP
06
08
00
78
18
18
30
30
fc
ENDCHAR
STARTCHAR icircumflex
ENCODING 238
SWIDTH 600 0
DWIDTH 7 0
BBX 6 9 0 0
BITMAP
0c
14
00
78
18
18
30
30
fc
ENDCHAR
STARTCHAR dcaron
ENCODING 239
SWIDTH 880 0
DWIDTH 11 0
BBX 12 10 0 0
BITMAP
0030
0760
0340
0200
3e00
6600
c600
cc00
cc00
7e00
ENDCHAR
STARTCHAR dstroke
ENCODING 240
SWIDTH 800 0
DWIDTH 10 0
BBX 11 9 0 0
BITMAP
0100
1fe0
0200
3e00
6600
c600
cc00
cc00
7e00
ENDCHAR
STARTCHAR nacute
ENCODING 241
SWIDTH 600 0
DWIDTH 7 0
BBX 8 9 -1 0
BITMAP
06
08
00
6e
3b
33
22
66
f7
ENDCHAR
STARTCHAR ncaron
ENCODING 242
SWIDTH 600 0
DWIDTH 7 0
BBX 8 9 -1 0
BITMAP
0a
0c
00
6e
3b
33
22
66
f7
ENDCHAR
STARTCHAR oacute
ENCODING 243
SWIDTH 600 0
DWIDTH 7 0
BBX 7 9 0 0
BITMAP
06
08
00
3c
66
c6
c4
cc
78
ENDCHAR
STARTCHAR ocircumflex
ENCODING 244
SWIDTH 600 0
DWIDTH 7 0
BBX 7 9 0 0
BITMAP
0c
14
00
3c
66
c6
c4
cc
78
ENDCHAR
STARTCHAR odoubleacute
ENCODING 245
SWIDTH 600 0
DWIDTH 7 0
BBX 7 9 0 0
BITMAP
12
24
00
3c
66
c6
c4
cc
78
ENDCHAR
STARTCHAR odiaeresis
ENCODING 246
SWIDTH 600 0
DWIDTH 7 0
BBX 7 8 0 0
BITMAP
66
00
3c
66
c6
c4
cc
78
ENDCHAR
STARTCHAR division
ENCODING 247
SWIDTH 600 0
DWIDTH 7 0
BBX 5 5 1 1
BITMAP
30
00
f8
00
60
ENDCHAR
STARTCHAR rcaron
ENCODING 248
SWIDTH 600 0
DWIDTH 7 0
BBX 7 9 0 0
BITMAP
14
18
00
6e
3a
30
60
60
f8
ENDCHAR
STARTCHAR uring
ENCODING 249
SWIDTH 600 0
DWIDTH 7 0
BBX 7 10 0 0
BITMAP
18
24
18
00
ee
66
66
cc
cc
76
ENDCHAR
STARTCHAR uacute
ENCODING 250
SWIDTH 600 0
DWIDTH 7 0
BBX 7 9 0 0
BITMAP
0c
10
00
ee
66
66
cc
cc
76
ENDCHAR
STARTCHAR udoubleacute
ENCODING 251
SWIDTH 600 0
DWIDTH 7 0
BBX 7 9 0 0
BITMAP
12
24
00
ee
66
66
cc
cc
76
ENDCHAR
STARTCHAR udiaeresis
ENCODING 252
SWIDTH 600 0
DWIDTH 7 0
BBX 7 8 0 0
BITMAP
66
00
ee
66
66
cc
cc
76
ENDCHAR
STARTCHAR yacute
ENCODING 253
SWIDTH 600 0
DWIDTH 7 0
BBX 9 12 -1 -3
BITMAP
0300
0400
0000
7b80
3300
3200
1c00
1800
1800
3000
6000
e000
ENDCHAR
STARTCHAR tcedilla
ENCODING 254
SWIDTH 600 0
DWIDTH 7 0
BBX 5 11 1 -3
BITMAP
30
30
f8
60
60
c0
c8
70
10
48
30
ENDCHAR
STARTCHAR abovedot
ENCODING 255
SWIDTH 600 0
DWIDTH 7 0
BBX 1 2 5 7
BITMAP
80
80
ENDCHAR
ENDFONT
